<?xml version="1.0" encoding="UTF-8" standalone="no"?>
<!-- Created with Inkscape (http://www.inkscape.org/) -->

<svg
   width="88.314377mm"
   height="79.947258mm"
   viewBox="0 0 88.314377 79.947258"
   version="1.1"
   id="svg5"
   xml:space="preserve"
   inkscape:export-filename="Smol logo.svg"
   inkscape:export-xdpi="42.759998"
   inkscape:export-ydpi="42.759998"
   sodipodi:docname="Smol logo.svg"
   inkscape:version="1.2.2 (732a01da63, 2022-12-09)"
   xmlns:inkscape="http://www.inkscape.org/namespaces/inkscape"
   xmlns:sodipodi="http://sodipodi.sourceforge.net/DTD/sodipodi-0.dtd"
   xmlns="http://www.w3.org/2000/svg"
   xmlns:svg="http://www.w3.org/2000/svg"><sodipodi:namedview
     id="namedview7"
     pagecolor="#505050"
     bordercolor="#ffffff"
     borderopacity="1"
     inkscape:showpageshadow="0"
     inkscape:pageopacity="0"
     inkscape:pagecheckerboard="1"
     inkscape:deskcolor="#505050"
     inkscape:document-units="mm"
     showgrid="false"
     inkscape:zoom="1.2285794"
     inkscape:cx="154.24319"
     inkscape:cy="195.34758"
     inkscape:window-width="1366"
     inkscape:window-height="705"
     inkscape:window-x="-8"
     inkscape:window-y="-8"
     inkscape:window-maximized="1"
     inkscape:current-layer="layer1" /><defs
     id="defs2" /><g
     inkscape:label="Layer 1"
     inkscape:groupmode="layer"
     id="layer1"
     transform="translate(-108.60897,-12.505953)"
     style="display:inline"><path
       style="fill:#a90000;fill-opacity:1;stroke-width:0.126011"
       d="m 149.82455,82.475118 c -2.57354,-2.797162 -3.7262,-4.164457 -5.29234,-6.277764 -0.21617,-0.291699 -0.57603,-0.772523 -0.79969,-1.068464 -0.22366,-0.295959 -0.63352,-0.847772 -0.91079,-1.226262 -0.65701,-0.896817 -0.61067,-0.863864 -2.32556,-1.654196 -8.75924,-4.036849 -14.84689,-12.127345 -16.1221,-21.426311 -0.11188,-0.816329 -0.23962,-1.551678 -0.28375,-1.63411 -0.0441,-0.08245 -0.66155,-0.912693 -1.37205,-1.845039 -0.71049,-0.932345 -1.45791,-1.916643 -1.66091,-2.187328 -0.203,-0.270683 -0.80242,-1.056366 -1.33206,-1.745968 -0.52965,-0.689592 -1.40619,-1.886212 -1.94788,-2.65915 l -0.98489,-1.405331 0.0885,-0.150325 c 0.0487,-0.08269 0.8699,-0.683407 1.82484,-1.334956 0.95495,-0.651556 3.84691,-2.622328 6.42657,-4.3795 l 4.69031,-3.194859 1.02554,-1.173148 c 4.43114,-5.068919 10.53963,-8.415725 17.41868,-9.543572 l 1.70247,-0.279132 h 2.89122 2.89123 l 1.70249,0.279132 c 3.31918,0.54419 6.01106,1.431005 8.92664,2.940781 3.15175,1.632074 6.33276,4.092441 8.31754,6.433231 0.47368,0.558629 1.02731,1.178223 1.23031,1.376879 0.203,0.198654 2.55596,1.850418 5.2288,3.670591 7.01061,4.774145 7.50881,5.118327 7.5774,5.234751 0.0341,0.05787 -0.1206,0.369821 -0.34363,0.693262 -0.71192,1.032214 -2.71084,3.756435 -3.7562,5.119106 -0.25483,0.332192 -1.05849,1.39663 -1.7859,2.365408 l -1.32259,1.761412 -8.2e-4,0.344946 c -4.9e-4,0.189714 -0.1081,0.998562 -0.23921,1.797446 -1.2281,7.482439 -5.32366,13.981725 -11.56055,18.345554 -1.61042,1.126742 -2.92492,1.881497 -4.52365,2.597309 -0.79953,0.357974 -1.5367,0.698204 -1.63821,0.756084 -0.17276,0.09847 -0.4643,0.463271 -1.75636,2.197299 -0.28583,0.383629 -0.6858,0.917525 -0.8888,1.18644 -0.203,0.268917 -0.83791,1.11663 -1.41092,1.883781 -0.99614,1.333726 -6.44492,7.396345 -6.64744,7.396345 -0.0534,0 -1.4198,-1.437464 -3.03625,-3.194342 z m 4.41826,-9.80669 1.32458,-1.385229 v -1.324403 -1.324395 l 0.86065,-1.130022 c 2.42224,-3.180376 5.19525,-6.840048 5.90603,-7.794463 0.43983,-0.590605 1.60247,-2.13095 2.58365,-3.422979 0.98115,-1.292055 2.22684,-2.942879 2.76818,-3.668549 0.54132,-0.725652 1.17479,-1.547685 1.40772,-1.826755 l 0.42347,-0.507393 -0.11596,-0.189291 c -0.0638,-0.104118 -0.91868,-0.849648 -1.89984,-1.656743 l -1.78395,-1.467446 -6.21349,6.507457 -6.21347,6.507457 h -0.42972 -0.42969 l -6.2135,-6.504983 -6.21348,-6.504999 -1.9302,1.568285 c -1.0616,0.862559 -1.93357,1.619331 -1.93774,1.68171 -0.004,0.06236 0.17241,0.329403 0.39232,0.593379 0.21993,0.263984 0.84277,1.074691 1.3841,1.801597 0.54134,0.726882 1.41678,1.882809 1.94542,2.568691 0.52867,0.685872 1.10998,1.450216 1.29183,1.698524 0.18185,0.248301 0.63711,0.858135 1.01168,1.355174 0.37459,0.497039 0.94177,1.252183 1.26041,1.678099 0.64348,0.860103 4.40449,5.822523 5.74733,7.583228 l 0.86184,1.130022 v 1.320102 1.320077 l 1.32046,1.389556 c 0.72627,0.764244 1.37589,1.389547 1.4436,1.389547 0.0677,0 0.7192,-0.623368 1.44771,-1.385255 z m 12.75459,-3.473163 c 3.24163,-1.878375 6.76092,-5.317968 8.76265,-8.56427 0.99588,-1.615022 1.75744,-3.133731 2.26522,-4.51725 0.54157,-1.475533 1.07097,-3.325661 1.00818,-3.523279 -0.025,-0.07863 -0.27311,0.173639 -0.55135,0.560772 -0.27823,0.38715 -0.93883,1.26507 -1.468,1.950952 -0.52918,0.685889 -1.40506,1.838121 -1.94638,2.560528 -0.54134,0.722422 -1.3718,1.824821 -1.84546,2.449783 -0.47367,0.624987 -1.85776,2.454832 -3.07576,4.066351 -1.218,1.611509 -2.59661,3.43266 -3.06359,4.047004 -0.46695,0.614334 -0.9028,1.189579 -0.96854,1.278312 -0.19654,0.265287 0.0273,0.187057 0.88303,-0.308903 z m -27.62525,0.179834 c -0.051,-0.08872 -0.42838,-0.596915 -0.83858,-1.129308 -0.70761,-0.918406 -1.08787,-1.425948 -1.78983,-2.38884 -0.16917,-0.232042 -1.02731,-1.363684 -1.90697,-2.51473 -1.93597,-2.533244 -3.00554,-3.943964 -4.30607,-5.679503 -0.54133,-0.722407 -1.41807,-1.874639 -1.94828,-2.560528 -0.53023,-0.685882 -1.15995,-1.525409 -1.3994,-1.865589 -0.23943,-0.340197 -0.45923,-0.593437 -0.48846,-0.562781 -0.08,0.08399 0.49355,2.055841 0.99594,3.423162 0.72486,1.972854 2.28012,4.784845 3.50705,6.340917 2.11029,2.676403 4.51785,4.882578 7.05877,6.468299 1.03935,0.648652 1.27652,0.748303 1.11583,0.468901 z m -1.99013,-21.426344 c 0.90079,-0.736355 4.26755,-3.479124 7.48172,-6.095042 3.21419,-2.615925 6.24862,-5.094835 6.74321,-5.508695 l 0.89928,-0.752471 h 0.35449 0.35451 l 0.89925,0.752312 c 0.95541,0.799284 14.87206,12.126151 15.60142,12.698108 l 0.4306,0.33768 1.41485,-1.877552 c 0.77816,-1.032654 1.60862,-2.123595 1.84546,-2.424319 0.23682,-0.300732 0.65205,-0.852488 0.92273,-1.226121 0.27066,-0.373641 0.68588,-0.925811 0.92273,-1.22705 0.51194,-0.651158 2.0887,-2.734425 2.30529,-3.045827 l 0.15227,-0.218924 -2.92045,-1.993005 c -1.60624,-1.096146 -2.9854,-2.031808 -3.06479,-2.079239 l -0.14429,-0.08623 -1.48329,2.162932 -1.4833,2.162926 0.70489,0.669822 0.70491,0.669833 -1.14936,1.169726 c -0.63213,0.643346 -1.17637,1.169719 -1.20938,1.169719 -0.033,0 -0.558,-0.450111 -1.16661,-1.000247 -0.60863,-0.550137 -1.5928,-1.435845 -2.18708,-1.96823 -0.59428,-0.532393 -1.64731,-1.490693 -2.34007,-2.129564 -0.69274,-0.63887 -1.55358,-1.422933 -1.91297,-1.742364 -0.35938,-0.319431 -1.22146,-1.1035 -1.91576,-1.742369 -0.69427,-0.638867 -1.74197,-1.597169 -2.3282,-2.129558 -0.58624,-0.532391 -1.4643,-1.330975 -1.95125,-1.774634 -0.48694,-0.443657 -0.93232,-0.806651 -0.9897,-0.806651 -0.0574,0 -0.43361,0.304915 -0.83604,0.677587 -0.40242,0.372674 -1.2762,1.171259 -1.94172,1.774632 -0.66553,0.603376 -1.91025,1.735914 -2.76606,2.516753 -0.85581,0.780839 -2.96133,2.697441 -4.67893,4.259117 -1.71759,1.561676 -3.45785,3.144043 -3.86723,3.516371 l -0.74436,0.676956 -1.19821,-1.252259 -1.19819,-1.252249 0.45536,-0.392688 c 0.25045,-0.215976 0.58478,-0.508946 0.74291,-0.651059 l 0.28753,-0.258379 -1.49517,-2.161572 c -0.82232,-1.188865 -1.53167,-2.159416 -1.57629,-2.156774 -0.16321,0.0096 -5.96761,4.065521 -6.01024,4.19968 -0.0385,0.121207 0.52419,0.907404 2.26881,3.169915 0.25382,0.329186 0.68295,0.903111 0.95362,1.275382 0.27068,0.372279 0.68591,0.922914 0.92273,1.223646 0.23683,0.300724 1.06729,1.395144 1.84547,2.432032 l 1.41484,1.885267 0.14616,-0.05422 c 0.0803,-0.0298 0.88317,-0.656722 1.78394,-1.393076 z m 2.15375,-10.646109 c 0.91446,-0.834081 1.9216,-1.748824 2.23807,-2.032765 1.04342,-0.936161 7.91984,-7.197175 9.46015,-8.613518 0.83078,-0.763927 1.55916,-1.388957 1.61859,-1.388957 0.0594,0 0.68541,0.53723 1.39106,1.193844 0.70564,0.656614 2.40948,2.210224 3.78631,3.452467 1.37682,1.242242 2.84377,2.578058 3.25989,2.968476 0.4161,0.390421 1.30197,1.203526 1.96859,1.806899 0.66662,0.603376 1.65868,1.505294 2.20459,2.004267 0.54591,0.498966 1.31325,1.190551 1.70521,1.536851 l 0.71263,0.629628 0.1103,-0.117146 c 0.0607,-0.06443 1.35823,-1.917498 2.88346,-4.117939 l 2.77317,-4.000796 -0.95096,-1.009085 c -4.32203,-4.586188 -9.83198,-7.42512 -16.08357,-8.286861 L 155.014,21.107563 h -2.15329 -2.15329 l -1.59927,0.220448 c -6.22085,0.857505 -11.77734,3.708879 -16.02009,8.220908 l -1.01052,1.074647 2.84324,4.097791 c 1.56377,2.253787 2.86777,4.097788 2.89776,4.097788 0.0299,0 0.80274,-0.682426 1.71721,-1.516507 z"
       id="path181" /></g></svg>
